<?xml version="1.0" encoding="UTF-8"?>
<!-- Generator: visioncortex VTracer 0.6.4 -->
<svg version="1.1" xmlns="http://www.w3.org/2000/svg" width="500" height="500" viewBox="0 0 500 500">
<defs>
  <clipPath id="rounded">
    <rect width="500" height="500" rx="60" ry="60"/>
  </clipPath>
</defs>
<rect width="500" height="500" rx="60" ry="60" fill="#92FD0D"/>
<g clip-path="url(#rounded)">
<path d="M0 0 C165 0 330 0 500 0 C500 165 500 330 500 500 C335 500 170 500 0 500 C0 335 0 170 0 0 Z " fill="#92FD0D" transform="translate(0,0)"/>
<path d="M0 0 C2.94219124 0.0106051 5.88375648 0.00012353 8.82592773 -0.01269531 C24.90968297 -0.02543589 40.96435961 0.80524272 56.73022461 4.19824219 C57.91261719 4.43317383 57.91261719 4.43317383 59.11889648 4.67285156 C64.66057678 5.81767605 69.60470828 7.44807008 75.04272461 9.26074219 C75.04272461 25.43074219 75.04272461 41.60074219 75.04272461 58.26074219 C67.20989972 57.1417672 67.20989972 57.1417672 63.80053711 56.35839844 C42.74723092 51.64835959 21.61837419 49.79170633 0.04272461 50.26074219 C-1.26180664 50.28910156 -2.56633789 50.31746094 -3.91040039 50.34667969 C-13.09091696 50.73694456 -21.7082165 51.99367849 -29.39477539 57.38574219 C-35.90154938 64.6860252 -36.7666992 73.00472697 -36.32836914 82.47558594 C-35.74289567 88.44741538 -34.61081421 92.68006942 -30.25024414 96.92089844 C-20.38800065 104.29400973 -7.52961468 107.22358291 4.23022461 110.01074219 C30.37133058 116.24704662 61.4383072 124.40007789 78.04272461 147.26074219 C87.89232533 163.76227767 89.21668572 180.25908689 89.29272461 199.13574219 C89.32366211 201.04419922 89.32366211 201.04419922 89.35522461 202.99121094 C89.38995641 211.49181847 88.33499413 219.08243165 86.04272461 227.26074219 C85.75284668 228.31197266 85.46296875 229.36320313 85.16430664 230.44628906 C80.54571499 246.51240991 70.06888011 259.20151639 55.83569336 267.73339844 C51.34407201 270.18965571 46.78410819 272.33276995 42.04272461 274.26074219 C41.35178711 274.54691406 40.66084961 274.83308594 39.94897461 275.12792969 C32.2921522 277.98451343 24.08838725 279.04360467 16.04272461 280.26074219 C15.35597656 280.36805664 14.66922852 280.47537109 13.96166992 280.5859375 C-18.41925125 285.47801912 -54.11230996 282.50746667 -85.95727539 275.26074219 C-86.78582031 275.08559082 -87.61436523 274.91043945 -88.46801758 274.72998047 C-89.28689453 274.5557959 -90.10577148 274.38161133 -90.94946289 274.20214844 C-91.69309082 274.04560791 -92.43671875 273.88906738 -93.20288086 273.7277832 C-94.95727539 273.26074219 -94.95727539 273.26074219 -95.95727539 272.26074219 C-96.05067973 270.63399441 -96.0747271 269.00320167 -96.07080078 267.3737793 C-96.07072525 266.33277573 -96.07064972 265.29177216 -96.0705719 264.21922302 C-96.06541061 263.08694778 -96.06024933 261.95467255 -96.05493164 260.78808594 C-96.05351669 259.63530655 -96.05210175 258.48252716 -96.05064392 257.29481506 C-96.04502544 253.59593155 -96.03246981 249.89710755 -96.01977539 246.19824219 C-96.01476277 243.69759202 -96.01019945 241.1969409 -96.00610352 238.69628906 C-95.99505001 232.55108631 -95.97829391 226.4059185 -95.95727539 220.26074219 C-94.70172852 220.52628906 -93.44618164 220.79183594 -92.15258789 221.06542969 C-87.08847331 222.13526405 -82.02320991 223.19956137 -76.95727539 224.26074219 C-75.92795898 224.47649902 -74.89864258 224.69225586 -73.83813477 224.91455078 C-55.99116557 228.57426329 -38.31625231 229.57062983 -20.14477539 229.63574219 C-19.2348584 229.64341614 -18.32494141 229.65109009 -17.38745117 229.65899658 C-4.59818705 229.74520014 9.05245966 229.82613388 20.04272461 222.26074219 C26.48473301 215.81873379 28.43330926 209.77160475 28.55053711 200.90917969 C28.54795898 199.91144531 28.54538086 198.91371094 28.54272461 197.88574219 C28.57108398 196.89574219 28.59944336 195.90574219 28.62866211 194.88574219 C28.64721757 187.85322242 27.27936495 182.92649951 23.04272461 177.26074219 C13.21790761 167.53021326 -2.9991642 164.69615492 -15.87670898 161.12158203 C-74.42078803 144.76190358 -74.42078803 144.76190358 -87.64868164 123.64746094 C-98.71619429 103.46163935 -99.13221897 74.85747679 -93.14868164 53.10839844 C-87.33417753 33.82972783 -76.51043076 20.87946548 -58.95727539 11.26074219 C-50.43547925 6.93693153 -41.49604449 4.60982044 -32.1796875 2.71923828 C-30.6974721 2.41344892 -29.22113245 2.07766423 -27.75244141 1.71240234 C-18.61085652 -0.33605558 -9.31629842 -0.03980997 0 0 Z " fill="#000100" transform="translate(252.957275390625,60.7392578125)"/>
<path d="M0 0 C4.40830916 2.16407904 7.12843553 4.42506462 9 9 C9.58562222 15.55207923 8.44721442 18.9405638 4.8125 24.3125 C3.98116436 25.61301172 3.1543523 26.91642589 2.33203125 28.22265625 C1.93064941 28.8583252 1.52926758 29.49399414 1.11572266 30.14892578 C-4.08293144 38.77391382 -6.97078632 46.91541377 -6 57 C-3.38391657 63.30238281 2.01776827 66.23896997 8 69 C49.44008525 84.40785673 106.37314207 74.91770846 149 69 C150.1250293 68.84917969 151.25005859 68.69835937 152.40917969 68.54296875 C165.86912338 66.73803763 179.2368951 64.70111577 192.55859375 62.0625 C198.87852482 60.81330686 205.21959992 59.68821876 211.5625 58.5625 C212.74021973 58.35246338 213.91793945 58.14242676 215.13134766 57.92602539 C221.16457355 56.85173303 227.19980544 55.79047652 233.23828125 54.74609375 C244.86023189 52.72409293 256.39987123 50.56487005 267.88476562 47.86621094 C274.35721521 46.35003611 280.84955033 45.01690627 287.375 43.75 C311.62483433 38.9985274 335.75891508 33.46089325 359.69921875 27.34375 C366.13279853 25.7004224 372.59267782 24.1713023 379.05541992 22.64746094 C380.25001831 22.36563965 380.25001831 22.36563965 381.46875 22.078125 C382.23010254 21.89910645 382.99145508 21.72008789 383.77587891 21.53564453 C385.95929247 21.00980377 388.13125482 20.44827894 390.3046875 19.8828125 C396.24599779 18.4634297 400.85487143 17.88771111 406.375 20.75 C409.54580494 23.46783281 411.70769996 25.38747811 412.46875 29.5859375 C412.56361874 38.05297211 412.56361874 38.05297211 410 41.5 C403.86227557 46.61477036 395.75449394 47.92147638 388.125 49.6875 C386.51008667 50.06769287 386.51008667 50.06769287 384.86254883 50.45556641 C382.5011445 51.01105374 380.13922267 51.56434456 377.77685547 52.11572266 C373.87113177 53.03017199 369.96852595 53.9570513 366.06640625 54.88671875 C319.12976969 66.05305803 271.9529896 76.59541828 224.40307617 84.80688477 C222.94707974 85.05862279 221.49110568 85.31049027 220.03515625 85.5625 C219.34799026 85.68117432 218.66082428 85.79984863 217.95283508 85.92211914 C212.27480644 86.9178311 206.65573672 88.13514089 201.02612305 89.37060547 C197.30786048 90.14395608 193.65000981 90.64973353 189.875 91.0625 C181.96061057 91.97544301 174.14521706 93.26900607 166.30078125 94.65234375 C150.69191546 97.3147194 134.94381334 98.9311911 119.20019531 100.56103516 C115.73262287 100.92032136 112.26882542 101.30814412 108.8046875 101.69921875 C69.7063788 105.77892362 14.81916647 110.29149713 -18.375 85.125 C-24.83827528 79.67841971 -29.0283676 73.87482586 -32 66 C-32.34675781 65.2678125 -32.69351563 64.535625 -33.05078125 63.78125 C-37.58000336 50.51044282 -32.69161794 35.52513567 -26.875 23.5 C-14.02107902 -1.99351834 -14.02107902 -1.99351834 0 0 Z " fill="#010200" transform="translate(60,313)"/>
</g>
</svg>
