<svg viewBox="92.747 97.89178356713427 355.625 164.4809619238477" xmlns:xlink="http://www.w3.org/1999/xlink" xmlns="http://www.w3.org/2000/svg" width="355.625" height="164.4809619238477"><clipPath id="cl_3"><rect height="284" width="569" x="6.1035156e-05"/></clipPath><g clip-path="url(#cl_3)"><path d="M145.523 305.57C150.571 304.891 154.64 308.226 153.249 313.517C151.839 318.885 144.393 327.047 147.74 333.053C151.251 339.354 164.018 340.111 170.429 340.598C193.18 341.962 215.779 338.128 238.095 334.143C258.054 330.536 277.896 326.316 297.595 321.489C306.477 319.365 315.328 316.979 324.203 314.835C325.614 314.494 327.904 314.257 329.255 314.763C330.812 315.352 332.073 316.532 332.765 318.047C334.692 322.259 332.496 325.81 328.427 327.384C324.313 328.677 319.172 329.798 314.905 330.833L295.03 335.643C261.744 343.457 183.342 361.305 151.756 350.964C145.275 348.843 138.869 345.224 135.713 338.928C132.837 333.191 133.383 326.787 135.351 320.854C137.168 315.372 140.116 308.306 145.523 305.57Z" transform="matrix(1.138 0 0 1.136 6.10352e-05 -142)" fill-opacity="0.98823529" fill="#94FE0C"/><path d="M144.496 213.244L158.763 213.265C158.607 217.261 158.73 222.024 158.733 226.067L158.72 254.061L161.84 253.662C165.832 248.169 171.318 239.461 175.449 234.538C180.871 234.337 186.27 234.433 191.693 234.497C185.494 242.167 179.503 251.052 173.104 258.956C177.483 264.694 182.254 272.298 186.582 278.359C188.147 280.719 190.783 284.917 192.524 286.912C187.474 287.031 180.429 287.142 175.472 286.86C172.246 283.634 162.765 266.045 160.379 264.772C159.564 264.786 159.414 264.634 158.936 265.041C158.569 266.833 158.673 270.585 158.657 272.542C158.609 277.371 158.603 282.201 158.639 287.031C153.969 286.955 149.297 286.939 144.626 286.983C144.374 284.526 144.455 280.281 144.453 277.708L144.458 262.164L144.496 213.244Z" transform="matrix(1.138 0 0 1.136 6.10352e-05 -142)"/><path d="M108.227 218.855C113.94 218.236 123.19 219.304 128.69 220.912C128.842 224.845 128.626 229.246 128.681 233.26C125.087 231.629 115.808 230.818 111.661 230.896C109.644 231.03 103.526 231.228 102.485 233.368C98.553 241.447 103.693 243.837 110.079 245.541C115.575 247.102 123.073 248.742 127.313 252.722C133.829 258.841 133.82 275.291 127.421 281.548C122.097 286.753 115.266 287.656 108.312 287.784C100.699 287.937 93.9562 287.408 86.5685 285.568C86.5058 281.372 86.4799 277.175 86.4907 272.978C92.6559 274.312 100.294 275.115 106.589 275.218C109.085 275.259 114.223 274.45 115.882 272.425C117.278 270.966 117.429 268.023 117.284 266.086C116.793 259.547 106.76 258.436 101.869 256.884C94.2233 254.458 87.7463 251.664 86.9025 242.74C85.2999 225.792 92.4843 220.465 108.227 218.855Z" transform="matrix(1.138 0 0 1.136 6.10352e-05 -142)"/><path d="M280.135 234.399C284.518 234.71 291.059 234.415 295.738 234.51C296.393 237.562 298.331 242.439 299.306 245.623C302.034 254.538 305.743 263.919 308.264 272.834L316.545 245.911C317.628 242.44 318.877 237.728 320.157 234.499C325.063 234.361 330.355 234.488 335.302 234.461C331.502 246.021 326.677 258.511 322.38 269.993C321.598 272.517 320.468 275.172 319.558 277.67C312.58 296.849 308.643 306.236 286.778 306.544C286.734 302.457 286.663 298.37 286.564 294.284C293.696 294.219 297.043 293.419 300.344 286.53C299.386 284.431 298.431 281.893 297.636 279.702C292.168 264.64 285.119 249.577 280.135 234.399Z" transform="matrix(1.138 0 0 1.136 6.10352e-05 -142)"/><path d="M342.804 234.382L351.833 234.516C353.278 238.174 354.823 243.328 356.091 247.167C358.871 255.67 361.696 264.158 364.566 272.632C367.334 263.995 369.744 255.075 372.614 246.445C373.829 242.793 375.027 237.958 376.48 234.488C381.515 234.421 386.551 234.423 391.586 234.495C389.696 240.382 387.354 246.415 385.198 252.239L376.952 274.436C376.659 275.982 375.572 278.413 375.002 279.959C368.098 298.694 363.713 305.863 343.125 306.496C342.981 302.578 343.06 298.25 343.021 294.282C350.09 294.283 353.302 293.159 356.612 286.527C354.654 282.107 352.767 276.864 350.989 272.321L341.239 247.508C339.875 244.035 337.623 237.503 336.168 234.517L342.804 234.382Z" transform="matrix(1.138 0 0 1.136 6.10352e-05 -142)"/><path d="M227.407 213.257L241.62 213.316C241.202 223.211 241.794 234.441 241.57 244.499C241.671 253.174 241.382 261.887 241.692 270.555C241.911 276.683 243.329 276.428 248.758 276.417C248.644 279.018 249.104 285.159 248.507 287.219C247.373 287.415 246.29 287.462 245.19 287.527C237.369 288.1 228.689 287.344 227.694 277.546C227.012 270.827 227.336 263.374 227.331 256.553C227.265 242.121 227.291 227.689 227.407 213.257Z" transform="matrix(1.138 0 0 1.136 6.10352e-05 -142)"/><path d="M257.082 213.238L271.007 213.283C271.191 217.738 271.052 223.305 271.056 227.834L271.042 256.085C271.038 261.587 270.817 267.78 271.389 273.265C271.755 276.78 275.776 276.501 278.465 276.429C278.206 278.583 278.375 284.612 278.293 287.162C275.662 287.656 273.301 287.536 270.626 287.587C263.823 287.717 258.532 285.369 257.327 278.082C256.794 274.858 256.954 271.397 256.952 268.104L256.945 255.026C256.935 241.514 256.642 226.64 257.082 213.238Z" transform="matrix(1.138 0 0 1.136 6.10352e-05 -142)"/><path d="M199.48 234.346C203.363 234.656 209.267 234.394 213.499 234.485C213.296 251.837 213.517 269.624 213.491 287.013C208.82 286.929 204.148 286.912 199.477 286.965C199.011 283.631 199.055 235.439 199.48 234.346Z" transform="matrix(1.138 0 0 1.136 6.10352e-05 -142)"/><path d="M204.639 212.602C206.482 212.437 211.474 212.491 212.709 213.741C214.919 215.978 214.903 223.407 212.911 225.825C211.995 226.937 209.602 227.05 208.312 227.19C205.926 227.352 202.528 227.267 200.316 226.341C198.096 223.961 197.486 217.072 199.675 214.384C201.046 212.701 202.641 212.76 204.639 212.602Z" transform="matrix(1.138 0 0 1.136 6.10352e-05 -142)"/></g></svg>
